#!OML:ASF E:/inclinewalkrobotboard/Project1/Captureday1/Session1/subject1.ASF
:FULLY-SPECIFIED
:DEGREES
213
root 0 0 0 -1.4109695976477816 21.443275890272364 8.587094045458398
lowerback -4.026886189566698 -6.062502643657693 -6.35932629924098
upperback -8.391026914965085 -7.507513847591952 6.981666084967104
thorax -6.088851046837984 -2.6191569152785377 10.968367522975573
lowerneck -5.598592771896423 -8.875828993131986 -7.670827768756001
upperneck 32.21886197129335 -11.460970400451743 1.8770467289190045
head 12.136102690967036 -5.834474914802706 0.36876676618575155
rclavicle -3.731942535493029E-15 -2.4285765343702645E-15
rhumerus -18.940341928293954 -26.939315690722257 -16.675500628215936
rradius 62.39890943859083
rwrist -12.259071515051346
rhand -26.61762126963837 32.38215144247983
rfingers 7.1250199999999655
rthumb -0.03338544927590803 1.6089744122428158
lclavicle 2.453680250603917E-16 -3.8681538471357664E-15
lhumerus 22.048316640890366 3.2705152299593263 42.744922106711
lradius 63.8606870703107
lwrist -6.789597080768526
lhand -14.239518194699755 7.467662309655527
lfingers 7.125019999999965
lthumb 11.737647009448146 35.628992139435326
rfemur 139.0328451391578 -154.90550387471646 -120.36220933426358
rtibia 28.4534300957924
rfoot -13.945973764760602 -49.659537410296394
rtoes 4.557931545299102
lfemur -82.08287397074126 24.017942249768957 -57.07157503188866
ltibia 68.24982869327474
lfoot 12.52196697691851 31.986216255881533
ltoes 0.09834664921760705
214
root 0 0 0 -1.4094775396661028 21.444246318918633 8.585876378401514
lowerback -4.027942613295592 -6.062559370943124 -6.35869341324201
upperback -8.39149086924149 -7.507567163569492 6.981920967168467
thorax -6.088648400334875 -2.6192762363809914 10.968272658545997
lowerneck -5.598527597082557 -8.876087402937898 -7.671077321336482
upperneck 32.21975444707577 -11.461368734350458 1.8769955422151308
head 12.136475941190872 -5.834662205390239 0.36875936913208673
rclavicle -3.725690835471908E-15 -2.4272341202838328E-15
rhumerus -18.935157367886823 -26.939218719897017 -16.677922492228227
rradius 62.399836996212436
rwrist -12.261621358521488
rhand -26.617609579856055 32.38172168205722
rfingers 7.1250199999999655
rthumb -0.03337429534535019 1.6085443800639538
lclavicle 2.5952482584933453E-16 -3.863468218606654E-15
lhumerus 22.052006020076753 3.2641122774635525 42.71845929701345
lradius 63.86502040706439
lwrist -6.796173116590556
lhand -14.222250155231723 7.469604316310718
lfingers 7.125019999999965
lthumb 11.754088406679871 35.62811415721638
rfemur 139.08642042751063 -154.95946427129917 -120.41698762041388
rtibia 28.467464171056264
rfoot -13.937734945898955 -49.6843733295689
rtoes 4.571720668043117
lfemur -82.08377378762555 24.02263213163493 -57.058395793482546
ltibia 68.27068325864776
lfoot 12.51279416291288 31.975036098907285
ltoes 0.10394481588940785
215
root 0 0 0 -1.406382724552504 21.440976181039648 8.583864471850726
lowerback -4.029695489995459 -6.062497500751524 -6.35792347516936
upperback -8.392205625974182 -7.507500648144001 6.982040543821807
thorax -6.088322341901698 -2.6193757106054276 10.967981125736618
lowerneck -5.598535851708097 -8.876079685724378 -7.67112030073428
upperneck 32.2209906231141 -11.46163830867923 1.8775298616561995
head 12.137013190414402 -5.8347081259157525 0.36894347962597884
rclavicle -3.727519680940394E-15 -2.430484230204062E-15
rhumerus -18.927328194580745 -26.938248017073647 -16.677991697328345
rradius 62.40167742187301
rwrist -12.263674134576327
rhand -26.61810117988533 32.381196378684145
rfingers 7.1250199999999655
rthumb -0.03383265423324744 1.607902701066699
lclavicle 2.473870475340799E-16 -3.86718531092914E-15
lhumerus 22.10080467475862 3.269510773602503 42.655928298998624
lradius 63.86346571774337
lwrist -6.820092641471843
lhand -14.191518443387054 7.471544444885936
lfingers 7.125019999999965
lthumb 11.783469468593479 35.62590241458593
rfemur 139.16143451472405 -155.03044711319293 -120.48885800060532
rtibia 28.4721742796564
rfoot -13.922497779293874 -49.715491892321666
rtoes 4.585685904931836
lfemur -82.08391028491316 24.02563536762605 -57.04340423354577
ltibia 68.2854335965144
lfoot 12.493530483492155 31.966365834633226
ltoes 0.10710492862091847
216
root 0 0 0 -1.4166129870015247 21.436885267370787 8.589377133077415
lowerback -4.021623863226079 -6.062198790585139 -6.35957685180713
upperback -8.388999900886152 -7.50720356250452 6.980856086430537
thorax -6.089966358262193 -2.618848630124252 10.967642399450458
lowerneck -5.59940449164747 -8.874308496633557 -7.669649293714285
upperneck 32.2146492855816 -11.458767695446344 1.8776002218845589
head 12.134516164570556 -5.833431072928049 0.3689380033379409
rclavicle -3.744865536687854E-15 -2.4359935570698398E-15
rhumerus -18.96043220001266 -26.938784418493086 -16.67085704113329
rradius 62.39711510013998
rwrist -12.252182963553594
rhand -26.61917057090786 32.38543181759166
rfingers 7.1250199999999655
rthumb -0.03485680560122617 1.6121277050031964
lclavicle 1.95464213332784E-16 -3.88858304323315E-15
lhumerus 22.0259772422629 3.264056032232237 42.80811332719187
lradius 63.85949042133514
lwrist -6.758000857552569
lhand -14.253836583648068 7.470632361641766
lfingers 7.125019999999965
lthumb 11.724034574288735 35.63343260294904
rfemur 138.91676518030692 -154.78189745040402 -120.2385703262126
rtibia 28.42347863792408
rfoot -13.948954670414413 -49.61122600593797
rtoes 4.52368891768651
lfemur -82.09813168049638 24.013410986906948 -57.07631799013491
ltibia 68.20500113863797
lfoot 12.565218445352219 31.99935922397141
ltoes 0.11995414576613328
